# xmcd
#
# Track frame offsets:
#	150
#	24085
#	50451
#	56640
#	89757
#	113602
#	129997
#	161442
#
# Disc length: 2355 seconds
#
# Revision: 1
# Processed by: cddbd v1.5.2PL0 Copyright (c) Steve Scherf et al.
# Submitted via: audiograbber 1.83.01
#
DISCID=5c093108
DTITLE=Groundhogs - Hogwash
DYEAR=1972
DGENRE=Rock
TTITLE0=I Love Miss Ogyny
TTITLE1=You Had a Lesson
TTITLE2=The Ringmaster
TTITLE3=3744 James Road
TTITLE4=Sad Is the Hunter
TTITLE5=S'One Song
TTITLE6=Earth Shanty
TTITLE7=Mr Hooker, Sir John
EXTD=
EXTT0=
EXTT1=
EXTT2=
EXTT3=
EXTT4=
EXTT5=
EXTT6=
EXTT7=
PLAYORDER=
